<svg width="54" height="54" viewBox="0 0 54 54" fill="none" xmlns="http://www.w3.org/2000/svg">
<path d="M27 54C41.9117 54 54 41.9117 54 27C54 12.0883 41.9117 0 27 0C12.0883 0 0 12.0883 0 27C0 41.9117 12.0883 54 27 54Z" fill="#00AB3F"/>
<path d="M12 17C12 15.8954 12.8954 15 14 15H40C41.1046 15 42 15.8954 42 17V19.5H12V17Z" fill="white"/>
<path d="M42 34C42 35.1046 41.1046 36 40 36L14 36C12.8954 36 12 35.1046 12 34L12 31.5L42 31.5L42 34Z" fill="white"/>
<path d="M16.5 42C16.5 41.1716 17.1716 40.5 18 40.5H36C36.8284 40.5 37.5 41.1716 37.5 42V42H16.5V42Z" fill="white"/>
<path d="M30 33L30 42L24 42L24 33L30 33Z" fill="white"/>
<path d="M14 36C12.8954 36 12 35.1046 12 34L12 17C12 15.8954 12.8954 15 14 15L16.5 15L16.5 36L14 36Z" fill="white"/>
<path d="M40 15C41.1046 15 42 15.8954 42 17L42 34C42 35.1046 41.1046 36 40 36L37.5 36L37.5 15L40 15Z" fill="white"/>
</svg>
