<svg width="54" height="54" viewBox="0 0 54 54" fill="none" xmlns="http://www.w3.org/2000/svg">
<path d="M27 54C41.9117 54 54 41.9117 54 27C54 12.0883 41.9117 0 27 0C12.0883 0 0 12.0883 0 27C0 41.9117 12.0883 54 27 54Z" fill="#7B61FF"/>
<path d="M17.1562 24H14.3438C13.8778 24 13.5 24.3801 13.5 24.8491V38.1509C13.5 38.6199 13.8778 39 14.3438 39H17.1562C17.6222 39 18 38.6199 18 38.1509V24.8491C18 24.3801 17.6222 24 17.1562 24Z" fill="white"/>
<path d="M24.6562 19.5H21.8437C21.3778 19.5 21 19.8446 21 20.2697V38.2303C21 38.6554 21.3778 39 21.8437 39H24.6562C25.1222 39 25.5 38.6554 25.5 38.2303V20.2697C25.5 19.8446 25.1222 19.5 24.6562 19.5Z" fill="white"/>
<path d="M32.1562 16.5H29.3438C28.8778 16.5 28.5 16.8598 28.5 17.3036V38.1964C28.5 38.6402 28.8778 39 29.3438 39H32.1562C32.6222 39 33 38.6402 33 38.1964V17.3036C33 16.8598 32.6222 16.5 32.1562 16.5Z" fill="white"/>
<path d="M39.6562 12H36.8438C36.3778 12 36 12.5849 36 13.3065V37.6935C36 38.4151 36.3778 39 36.8438 39H39.6562C40.1222 39 40.5 38.4151 40.5 37.6935V13.3065C40.5 12.5849 40.1222 12 39.6562 12Z" fill="white"/>
<path d="M9 37.5H43.5V37.5C43.5 38.3284 42.8284 39 42 39H10.5C9.67157 39 9 38.3284 9 37.5V37.5Z" fill="white"/>
</svg>
