<svg width="32" height="32" viewBox="0 0 32 32" fill="none" xmlns="http://www.w3.org/2000/svg">
<path d="M32 16C32 7.16344 24.8366 0 16 0C7.16344 0 0 7.16344 0 16C0 24.8366 7.16344 32 16 32C24.8366 32 32 24.8366 32 16Z" fill="#00AB3F"/>
<path d="M26.4191 15.3765C26.5287 15.4396 26.6198 15.5304 26.6832 15.6399C26.7465 15.7494 26.7799 15.8736 26.7799 16.0001C26.7799 16.1266 26.7465 16.2508 26.6832 16.3603C26.6198 16.4697 26.5287 16.5606 26.4191 16.6236L18.8776 20.9815L11.3361 25.342C11.227 25.4057 11.1031 25.4394 10.9768 25.4396C10.8505 25.4399 10.7263 25.4068 10.6169 25.3436C10.5076 25.2805 10.4168 25.1895 10.3539 25.0799C10.291 24.9704 10.2582 24.8462 10.2588 24.7199V19.7372C10.259 19.6112 10.2922 19.4875 10.3551 19.3783C10.4179 19.2692 10.5082 19.1784 10.617 19.115L13.1353 17.6605L14.9318 16.6236C15.0408 16.5604 15.1313 16.4697 15.1943 16.3605C15.2572 16.2513 15.2903 16.1275 15.2903 16.0014C15.2903 15.8754 15.2572 15.7516 15.1943 15.6424C15.1313 15.5332 15.0408 15.4424 14.9318 15.3792L13.1353 14.3396L10.617 12.8879C10.5082 12.8244 10.4179 12.7337 10.3551 12.6245C10.2922 12.5154 10.259 12.3916 10.2588 12.2657V7.28294C10.2582 7.15663 10.291 7.03245 10.3539 6.92292C10.4168 6.81339 10.5076 6.7224 10.6169 6.65924C10.7263 6.59607 10.8505 6.56297 10.9768 6.56323C11.1031 6.5635 11.227 6.59719 11.3361 6.66082L18.8776 11.0187L26.4191 15.3765Z" fill="white"/>
</svg>
