<svg width="32" height="32" viewBox="0 0 32 32" fill="none" xmlns="http://www.w3.org/2000/svg">
<path d="M23.8998 15.3751C24.0094 15.4382 24.1005 15.529 24.1639 15.6385C24.2272 15.748 24.2606 15.8722 24.2606 15.9987C24.2606 16.1252 24.2272 16.2494 24.1639 16.3589C24.1005 16.4683 24.0094 16.5592 23.8998 16.6222L16.3583 20.9801L8.81686 25.3406C8.70775 25.4043 8.58377 25.4379 8.45747 25.4382C8.33117 25.4385 8.20703 25.4054 8.09765 25.3422C7.98828 25.279 7.89754 25.1881 7.83464 25.0785C7.77175 24.969 7.73893 24.8448 7.73951 24.7185V19.7358C7.73975 19.6098 7.77294 19.4861 7.83578 19.3769C7.89862 19.2678 7.98894 19.177 8.09773 19.1136L10.616 17.6591L12.4125 16.6222C12.5215 16.559 12.6121 16.4682 12.675 16.3591C12.7379 16.2499 12.771 16.126 12.771 16C12.771 15.874 12.7379 15.7502 12.675 15.641C12.6121 15.5318 12.5215 15.441 12.4125 15.3778L10.616 14.3382L8.09773 12.8865C7.98894 12.823 7.89862 12.7323 7.83578 12.6231C7.77294 12.514 7.73975 12.3902 7.73951 12.2643V7.28153C7.73893 7.15523 7.77175 7.03105 7.83464 6.92152C7.89754 6.81199 7.98828 6.721 8.09765 6.65783C8.20703 6.59467 8.33117 6.56156 8.45747 6.56183C8.58377 6.5621 8.70775 6.59578 8.81686 6.65941L16.3583 11.0173L23.8998 15.3751Z" fill="#00AB3F"/>
</svg>
