<svg width="314" height="55" viewBox="0 0 314 55" fill="none" xmlns="http://www.w3.org/2000/svg">
<path d="M4.20342 43.9824H15.74C22.799 43.9824 27.2537 40.2588 27.2537 34.4791C27.2537 30.0929 23.7356 26.7804 19.2809 26.5748V26.392C22.936 25.8895 25.7231 22.9425 25.7231 19.2417C25.7231 14.1473 21.8166 11.0176 15.3288 11.0176H4.20342C1.55344 11.0176 0 12.6167 0 15.4038V39.5963C0 42.3833 1.55344 43.9824 4.20342 43.9824ZM8.38399 24.4503V16.9572H13.1128C15.9227 16.9572 17.5675 18.3279 17.5675 20.6352C17.5675 23.011 15.74 24.4503 12.7016 24.4503H8.38399ZM8.38399 38.0428V29.5446H13.3184C16.768 29.5446 18.7326 31.0524 18.7326 33.748C18.7326 36.5351 16.8137 38.0428 13.3641 38.0428H8.38399Z" fill="#3E3E3E"/>
<path d="M34.998 44.485C37.648 44.485 39.1786 42.9087 39.1786 40.1217V14.8783C39.1786 12.0913 37.648 10.515 34.998 10.515C32.348 10.515 30.7946 12.0913 30.7946 14.8783V40.1217C30.7946 42.9087 32.348 44.485 34.998 44.485Z" fill="#3E3E3E"/>
<path d="M47.791 43.9824H66.3409C68.5568 43.9824 70.0646 42.7488 70.0646 40.6014C70.0646 38.454 68.6025 37.2204 66.3409 37.2204H53.525V37.0377L67.8943 17.9395C68.534 17.0714 69.1279 16.2262 69.1279 14.924C69.1279 12.5253 67.506 11.0176 64.9245 11.0176H47.1742C44.9126 11.0176 43.4505 12.2512 43.4505 14.3986C43.4505 16.546 44.9354 17.7796 47.1742 17.7796H59.2819V17.9624L44.7755 37.129C43.9531 38.2027 43.6104 39.0937 43.6104 40.2359C43.6104 42.5204 45.2781 43.9824 47.791 43.9824Z" fill="#3E3E3E"/>
<path d="M131.064 27.5C131.064 12.5883 118.976 0.5 104.064 0.5C89.1528 0.5 77.0645 12.5883 77.0645 27.5C77.0645 42.4117 89.1528 54.5 104.064 54.5C118.976 54.5 131.064 42.4117 131.064 27.5Z" fill="#00AB3F"/>
<path d="M121.647 26.4478C121.832 26.5541 121.986 26.7075 122.093 26.8922C122.2 27.0769 122.256 27.2866 122.256 27.5001C122.256 27.7135 122.2 27.9231 122.093 28.1078C121.986 28.2925 121.832 28.4459 121.647 28.5522L108.921 35.9061L96.1945 43.2645C96.0104 43.3719 95.8012 43.4288 95.588 43.4292C95.3749 43.4297 95.1654 43.3738 94.9808 43.2672C94.7963 43.1606 94.6431 43.0071 94.537 42.8222C94.4309 42.6374 94.3755 42.4279 94.3765 42.2147V33.8063C94.3769 33.5938 94.4329 33.385 94.5389 33.2008C94.645 33.0166 94.7974 32.8635 94.981 32.7564L99.2306 30.302L102.262 28.5522C102.446 28.4456 102.599 28.2924 102.705 28.1081C102.811 27.9239 102.867 27.7149 102.867 27.5023C102.867 27.2896 102.811 27.0807 102.705 26.8964C102.599 26.7121 102.446 26.559 102.262 26.4523L99.2306 24.698L94.981 22.2481C94.7974 22.1411 94.645 21.9879 94.5389 21.8037C94.4329 21.6195 94.3769 21.4107 94.3765 21.1982V12.7898C94.3755 12.5767 94.4309 12.3671 94.537 12.1823C94.6431 11.9975 94.7963 11.8439 94.9808 11.7373C95.1654 11.6307 95.3749 11.5749 95.588 11.5753C95.8012 11.5758 96.0104 11.6326 96.1945 11.74L108.921 19.0939L121.647 26.4478Z" fill="white"/>
<path d="M140.143 44.1143H156.653C157.831 44.1143 158.639 43.3523 158.639 42.2439C158.639 41.1355 157.831 40.3735 156.653 40.3735H142.221V12.6175C142.221 11.3013 141.413 10.47 140.143 10.47C138.873 10.47 138.064 11.3013 138.064 12.6175V41.9668C138.064 43.283 138.873 44.1143 140.143 44.1143Z" fill="#3E3E3E"/>
<path d="M164.943 44.4376C166.213 44.4376 167.021 43.6063 167.021 42.2901V12.6175C167.021 11.3013 166.213 10.47 164.943 10.47C163.673 10.47 162.865 11.3013 162.865 12.6175V42.2901C162.865 43.6063 163.673 44.4376 164.943 44.4376Z" fill="#3E3E3E"/>
<path d="M175.565 44.1143H186.072C193.161 44.1143 197.363 40.6275 197.363 34.7623C197.363 30.3287 194.454 27.1421 189.928 26.5648V26.38C193.138 25.8027 195.678 22.5699 195.678 19.1062C195.678 14.1184 191.822 10.7933 186.118 10.7933H175.565C174.295 10.7933 173.487 11.6245 173.487 12.9408V41.9668C173.487 43.283 174.295 44.1143 175.565 44.1143ZM177.643 25.1562V14.4648H185.171C189.212 14.4648 191.475 16.289 191.475 19.5911C191.475 23.1934 188.797 25.1562 183.878 25.1562H177.643ZM177.643 40.4428V28.7354H185.056C190.367 28.7354 193.092 30.6981 193.092 34.5544C193.092 38.4107 190.459 40.4428 185.448 40.4428H177.643Z" fill="#3E3E3E"/>
<path d="M204.152 44.53C205.399 44.53 206.231 43.6756 206.231 42.3825V30.9291H214.197L220.871 43.1907C221.402 44.1836 221.956 44.53 222.903 44.53C224.103 44.53 225.027 43.6987 225.027 42.6134C225.027 42.1515 224.912 41.7359 224.588 41.1586L218.492 30.2825C222.672 28.9663 225.189 25.364 225.189 20.7226C225.189 14.7188 220.986 10.7933 214.567 10.7933H204.152C202.882 10.7933 202.074 11.6245 202.074 12.9408V42.3825C202.074 43.6756 202.905 44.53 204.152 44.53ZM206.231 27.2575V14.4879H214.012C218.308 14.4879 220.894 16.8663 220.894 20.8612C220.894 24.9484 218.469 27.2575 214.197 27.2575H206.231Z" fill="#3E3E3E"/>
<path d="M230.546 44.4376C231.585 44.4376 232.186 43.9527 232.578 42.8443L235.511 34.5775H248.696L251.652 42.8443C252.044 43.9527 252.645 44.4376 253.684 44.4376C254.884 44.4376 255.762 43.6756 255.762 42.6134C255.762 42.3132 255.693 41.9668 255.508 41.4588L244.77 12.4558C244.262 11.0934 243.431 10.47 242.161 10.47C240.799 10.47 239.944 11.1165 239.436 12.4789L228.722 41.4588C228.537 41.9668 228.468 42.3132 228.468 42.6134C228.468 43.6756 229.345 44.4376 230.546 44.4376ZM236.711 31.0445L242.046 15.8503H242.184L247.518 31.0445H236.711Z" fill="#3E3E3E"/>
<path d="M262.343 44.53C263.59 44.53 264.421 43.6756 264.421 42.3825V30.9291H272.388L279.061 43.1907C279.592 44.1836 280.147 44.53 281.093 44.53C282.294 44.53 283.218 43.6987 283.218 42.6134C283.218 42.1515 283.102 41.7359 282.779 41.1586L276.683 30.2825C280.862 28.9663 283.379 25.364 283.379 20.7226C283.379 14.7188 279.177 10.7933 272.757 10.7933H262.343C261.073 10.7933 260.265 11.6245 260.265 12.9408V42.3825C260.265 43.6756 261.096 44.53 262.343 44.53ZM264.421 27.2575V14.4879H272.203C276.498 14.4879 279.084 16.8663 279.084 20.8612C279.084 24.9484 276.66 27.2575 272.388 27.2575H264.421Z" fill="#3E3E3E"/>
<path d="M299.867 44.4376C301.137 44.4376 301.945 43.6063 301.945 42.2901V29.7745L312.729 13.6335C313.052 13.1486 313.144 12.756 313.144 12.2942C313.144 11.2551 312.267 10.47 311.135 10.47C310.304 10.47 309.819 10.7702 309.311 11.5322L299.936 25.7566H299.798L290.422 11.5322C289.914 10.7702 289.429 10.47 288.598 10.47C287.467 10.47 286.589 11.2551 286.589 12.2942C286.589 12.756 286.682 13.1486 287.005 13.6335L297.789 29.7745V42.2901C297.789 43.6063 298.597 44.4376 299.867 44.4376Z" fill="#3E3E3E"/>
</svg>
